<svg viewBox="0 0 512 512" xml:space="preserve" xmlns="http://www.w3.org/2000/svg"><path d="M254.5 40.55c3.416 0 7-2.771 7-6.188V19.653c0-3.416-3.584-6.188-7-6.188s-7 2.771-7 6.188v14.709c0 3.416 3.584 6.188 7 6.188zM304.469 60.081a6.17 6.17 0 0 0 4.375-1.813l10.402-10.402a6.188 6.188 0 0 0-8.75-8.75l-10.402 10.402a6.188 6.188 0 0 0 4.375 10.563zM201.533 60.032c1.209 1.209 2.791 1.813 4.375 1.813s3.166-.604 4.375-1.813a6.184 6.184 0 0 0 0-8.75l-10.402-10.4a6.182 6.182 0 0 0-8.748 0 6.182 6.182 0 0 0 0 8.748l10.4 10.402zM172.318 126.876a86.068 86.068 0 0 1-1.604-16.641c0-6.27.688-12.514 2.043-18.559a6.187 6.187 0 0 0-4.684-7.391c-3.309-.736-6.643 1.346-7.393 4.684a97.44 97.44 0 0 0-2.342 21.266c0 6.465.619 12.871 1.842 19.043a6.188 6.188 0 0 0 6.063 4.988 6.1 6.1 0 0 0 1.207-.121 6.183 6.183 0 0 0 4.868-7.269zM339.18 145.001a6.187 6.187 0 0 0-8.295 2.787c-14.387 28.951-43.391 46.941-75.695 46.951-32.305-.01-61.307-18-75.693-46.951-1.523-3.061-5.244-4.311-8.295-2.787-3.061 1.52-4.309 4.924-2.789 7.987 16.486 33.176 49.711 53.512 86.729 53.512h.097c37.018 0 70.246-20.336 86.73-53.512 1.519-3.063.271-6.467-2.789-7.987zM350.166 129.288a97.598 97.598 0 0 0 1.875-19.053c0-7.193-.797-14.375-2.363-21.344-.75-3.336-4.064-5.436-7.395-4.678a6.186 6.186 0 0 0-4.678 7.393 85.06 85.06 0 0 1 2.061 18.629c0 5.594-.553 11.191-1.639 16.631a6.19 6.19 0 0 0 12.139 2.422zM314.971 228.5H194.48c-3.711 0-7.98 4.386-7.98 8.122v255.344c0 3.713 4.27 6.534 7.98 6.534h120.49c3.711 0 6.529-2.821 6.529-6.534V236.622c.001-3.736-2.817-8.122-6.528-8.122z" fill="#009e83" class="fill-000000"></path><path d="m207.842 104.726 22.078 16.433c1.637 1.189 2.32 3.492 1.697 5.416l-8.434 26.053c-1.396 4.301 3.525 7.927 7.184 5.269l22.078-16.019a4.668 4.668 0 0 1 5.488.012l22.078 16.049c3.658 2.658 8.58-.917 7.182-5.217l-8.432-25.953a4.669 4.669 0 0 1 1.695-5.218l22.08-16.826c3.66-2.658 1.777-9.226-2.744-9.226h-27.291c-2.021 0-3.814-.52-4.439-2.444l-8.434-25.563c-1.396-4.303-7.48-4.106-8.879.195l-8.432 25.27c-.627 1.924-2.42 2.542-4.441 2.542h-27.293c-4.52.001-6.399 6.569-2.741 9.227zM162.5 366.25a6.75 6.75 0 0 0-6.75-6.75H34.25a6.75 6.75 0 0 0-6.75 6.75v126.5a6.75 6.75 0 0 0 6.75 6.75h121.5a6.75 6.75 0 0 0 6.75-6.75v-126.5zM81.66 284.896a2.963 2.963 0 0 1 1.076 3.313l-2.916 8.971c-.885 2.729 2.236 4.996 4.557 3.311l7.633-5.545a2.96 2.96 0 0 1 3.48 0l7.633 5.545c2.32 1.686 5.441-.582 4.557-3.311l-2.916-8.971a2.966 2.966 0 0 1 1.074-3.313l7.635-5.792c2.32-1.682 1.127-5.604-1.74-5.604h-9.436c-1.281 0-2.42-.578-2.814-1.797l-2.916-8.848c-.885-2.729-4.746-2.668-5.631.061l-2.916 8.755c-.396 1.221-1.535 1.829-2.818 1.829H75.77c-2.867 0-4.061 3.922-1.74 5.604l7.63 5.792z" fill="#009e83" class="fill-000000"></path><path d="M93.75 337.503c30.131 0 54.643-24.512 54.643-54.641S123.881 228.22 93.75 228.22c-30.129 0-54.643 24.514-54.643 54.643s24.514 54.64 54.643 54.64zm0-96.908c23.344 0 42.268 18.924 42.268 42.268s-18.924 42.266-42.268 42.266c-23.342 0-42.268-18.922-42.268-42.266s18.926-42.268 42.268-42.268zM483.5 366.25a6.75 6.75 0 0 0-6.75-6.75h-121.5a6.75 6.75 0 0 0-6.75 6.75v126.5a6.75 6.75 0 0 0 6.75 6.75h121.5a6.75 6.75 0 0 0 6.75-6.75v-126.5zM403.609 284.896a2.963 2.963 0 0 1 1.076 3.313l-2.914 8.971c-.887 2.729 2.236 4.996 4.557 3.311l7.631-5.545a2.96 2.96 0 0 1 3.48 0l7.633 5.545c2.32 1.686 5.443-.582 4.559-3.311l-2.916-8.971a2.963 2.963 0 0 1 1.074-3.313l7.633-5.792c2.32-1.682 1.127-5.604-1.74-5.604h-9.436c-1.283 0-2.418-.578-2.814-1.797l-2.916-8.848c-.885-2.729-4.746-2.668-5.631.061l-2.916 8.755c-.396 1.221-1.533 1.829-2.816 1.829h-9.434c-2.867 0-4.061 3.922-1.74 5.604l7.63 5.792z" fill="#009e83" class="fill-000000"></path><path d="M415.699 337.503c30.131 0 54.645-24.512 54.645-54.641s-24.514-54.643-54.645-54.643c-30.129 0-54.643 24.514-54.643 54.643s24.514 54.641 54.643 54.641zm0-96.908c23.344 0 42.27 18.924 42.27 42.268s-18.926 42.266-42.27 42.266c-23.342 0-42.268-18.922-42.268-42.266s18.926-42.268 42.268-42.268z" fill="#009e83" class="fill-000000"></path></svg>