<svg viewBox="0 0 512 512" xml:space="preserve" xmlns="http://www.w3.org/2000/svg"><circle cx="377.172" cy="164.224" r="37.081" fill="#c2505b" class="fill-000000"></circle><path d="m174.829 491.418 14.338-107.463-4.645-34.808 1.414-1.28-26.719-24.368-.225-.224c-17.494-17.521-19.881-44.519-7.158-64.61l-.721-1.063 7.842-7.953 20.902-20.902c1.477-1.479 2.988-2.528 4.514-3.786-11.586-6.324-24.668-9.461-38.1-9.461h-21.398c-21.104 0-41.354 7.223-56.271 22.139L47.7 257.5h.043c-15.029 16-15.029 40.289 0 55.344l38.881 35.893-19.215 144.182c-.383 2.881 1.867 5.581 4.77 5.581h29.363c2.408 0 4.432-1.674 4.77-4.059l15.908-115.395a14.518 14.518 0 0 1 1.869-5.374c5.016-8.553 17.953-8.538 22.947.013a14.272 14.272 0 0 1 1.889 5.407l15.91 115.347c.338 2.387 2.361 4.061 4.77 4.061h5.711c-.626-2-.805-4.676-.487-7.082zm-81.656-186.75-12.285-12.307a8.394 8.394 0 0 1 0-11.881l15.545-15.545c.811-.813 2.184-.137 2.027 1.01l-5.287 38.723z" fill="#c2505b" class="fill-000000"></path><circle cx="135.571" cy="164.225" r="37.081" fill="#c2505b" class="fill-000000"></circle><path d="m211.427 64.974 5.396 1.191a2.522 2.522 0 0 1 1.919 1.939 38.367 38.367 0 0 0 4.049 10.584c.465.82.434 1.828-.074 2.625l-3.352 5.225a2.542 2.542 0 0 0 .343 3.174l5.258 5.264a2.55 2.55 0 0 0 3.175.344l4.749-3.041a2.545 2.545 0 0 1 2.75.008 38.487 38.487 0 0 0 10.289 4.627 2.543 2.543 0 0 1 1.793 1.9l1.334 6.39c.258 1.164 1.291 2.296 2.488 2.296h7.441c1.197 0 2.232-1.132 2.486-2.296l1.201-5.613c.213-.975.977-1.806 1.955-2.017 3.775-.813 7.346-2.212 10.621-4.039a2.54 2.54 0 0 1 2.611.059l5.178 3.306c1.01.646 2.33.5 3.176-.348l5.262-5.263a2.556 2.556 0 0 0 .346-3.178l-2.949-4.602a2.547 2.547 0 0 1 .016-2.761 38.413 38.413 0 0 0 4.754-10.477c.256-.9.984-1.588 1.902-1.787l5.907-1.287c1.168-.254 2.047-1.291 2.047-2.486V57.27c0-1.195-.879-2.23-2.047-2.488l-5.222-1.141a2.557 2.557 0 0 1-1.956-1.961 38.392 38.392 0 0 0-4.118-10.895 2.546 2.546 0 0 1 .068-2.619l3.17-4.951a2.542 2.542 0 0 0-.347-3.172l-5.262-5.264a2.542 2.542 0 0 0-3.172-.344l-4.427 2.834a2.542 2.542 0 0 1-2.758-.014 38.503 38.503 0 0 0-10.674-4.791 2.547 2.547 0 0 1-1.807-1.904l-1.25-5.883c-.258-1.168-1.293-2.177-2.488-2.177h-7.441c-1.197 0-2.232 1.009-2.486 2.177l-1.135 5.26c-.213.973-.975 1.769-1.949 1.981a38.358 38.358 0 0 0-10.854 4.19 2.545 2.545 0 0 1-2.631-.055l-4.998-3.198a2.55 2.55 0 0 0-3.176.349l-5.262 5.262a2.543 2.543 0 0 0-.344 3.174l2.928 4.573a2.552 2.552 0 0 1-.002 2.745 38.34 38.34 0 0 0-4.668 10.488 2.548 2.548 0 0 1-1.904 1.809l-5.863 1.303c-1.17.254-1.927 1.289-1.927 2.486v7.441c.004 1.196.761 2.231 1.931 2.489zM256.378 37.8c12.193 0 22.076 9.885 22.076 22.076 0 12.193-9.883 22.076-22.076 22.076-12.191 0-22.074-9.883-22.074-22.076 0-12.191 9.883-22.076 22.074-22.076zM135.167 106.572a6.19 6.19 0 0 0 6.973-5.285c2.762-20.082 20.154-35.223 40.459-35.223a6.189 6.189 0 0 0 0-12.376c-26.455 0-49.119 19.738-52.719 45.91a6.187 6.187 0 0 0 5.287 6.974zM327.524 66.064c20.35 0 37.748 15.182 40.469 35.311a6.188 6.188 0 0 0 6.961 5.302 6.19 6.19 0 0 0 5.305-6.961c-3.549-26.238-26.219-46.027-52.734-46.027a6.188 6.188 0 0 0-.001 12.375zM316.776 435.057l-11.451-85.861 11.475-10.461 27.404-24.998c15.031-15.051 15.031-39.443 0-54.473l.045-.068-20.902-20.903c-2.092-2.092-4.297-3.815-6.592-5.59-14.041-11.271-31.545-17.202-49.68-17.202h-21.4c-18.133 0-35.639 5.931-49.68 17.181-2.293 1.797-4.5 3.649-6.592 5.741l-20.902 20.837.047.037c-15.029 15.029-15.029 39.404 0 54.457l27.404 24.987 11.473 10.458-11.451 85.86-7.76 58.206c-.361 2.721 1.619 5.06 4.273 5.331.158.021.338-.096.494-.096h29.363c2.406 0 4.432-1.664 4.768-4.047l15.91-115.389c.27-1.957.922-3.774 1.867-5.394 5.018-8.527 17.955-8.515 22.949.013a14.456 14.456 0 0 1 1.891 5.433l15.908 115.333c.336 2.385 2.361 4.051 4.77 4.051h29.363c.154 0 .336.115.494.094 2.654-.273 4.637-2.666 4.275-5.389l-7.763-58.148zM213.974 304.691l-12.285-12.309a8.391 8.391 0 0 1 0-11.879l15.549-15.547c.811-.811 2.182-.137 2.025.988l-5.289 38.747zm79.513-38.746c-.154-1.125 1.217-1.799 2.027-.988l15.547 15.547a8.391 8.391 0 0 1 0 11.879l-12.285 12.309-5.289-38.747z" fill="#c2505b" class="fill-000000"></path><path d="m465.007 259.242.043-.068-20.898-20.634c-14.941-14.916-35.17-23.04-56.275-23.04h-21.396c-13.445 0-26.539 3.142-38.131 9.485 1.525 1.291 3.045 2.522 4.543 4.02l28.791 28.66-.766 1.063c12.723 20.096 10.336 47.057-7.162 64.58l-.453.417-26.493 24.155 1.42 1.296-4.643 34.823 14.334 107.38c.32 2.432.141 5.121-.494 7.121h5.721c2.406 0 4.432-1.674 4.77-4.059l15.908-115.395c.27-1.957.92-3.755 1.867-5.374 5.018-8.553 17.955-8.538 22.949.013a15.164 15.164 0 0 1 1.891 5.407l15.906 115.347c.338 2.387 2.361 4.061 4.771 4.061h29.361c2.902 0 5.152-2.482 4.77-5.365l-19.215-144.012 38.881-35.437c15.029-15.052 15.029-39.415 0-54.444zm-33.145 33.119-12.283 12.307-5.287-38.723c-.158-1.146 1.215-1.822 2.025-1.01l15.545 15.545a8.386 8.386 0 0 1 0 11.881zM256.376 126.5h-.002c-20.479 0-37.078 16.519-37.078 36.999 0 20.479 16.6 37.001 37.078 37.001h.002c20.479 0 37.08-16.522 37.08-37.001 0-20.48-16.602-36.999-37.08-36.999z" fill="#c2505b" class="fill-000000"></path></svg>