<svg viewBox="0 0 256 256" xmlns="http://www.w3.org/2000/svg"><g data-name="Layer 2"><path d="M216.41 99.94v8.4l-25.15 4.33-25.16-4.33v-8.4l10.19-13.19h29.94l10.18 13.19z" fill="#c2505b" class="fill-ffd659"></path><path d="M191.26 114.67h-.34l-25.15-4.33a2 2 0 0 1-1.66-2v-8.4a2 2 0 0 1 .42-1.22l10.17-13.19a2 2 0 0 1 1.58-.78h29.94a2 2 0 0 1 1.58.78L218 98.72a2 2 0 0 1 .42 1.22v8.4a2 2 0 0 1-1.66 2l-25.15 4.33Zm-23.15-8 23.15 4 23.15-4v-6l-9.16-11.87h-28l-9.16 11.87Z" fill="#2fb1ea" class="fill-2fb1ea"></path><path d="M232.14 109.1v39.18a25.2 25.2 0 0 1-25.2 25.2h-31.37a25.2 25.2 0 0 1-25.2-25.2V109.1a10.08 10.08 0 0 1 6.44-9.4l5.22-2 29.23 15 29.23-15 5.22 2a10.08 10.08 0 0 1 6.43 9.4Z" fill="#6dd0fc" class="fill-6dd0fc"></path><path d="M232.14 109.1v29.24a25.2 25.2 0 0 1-25.2 25.2h-31.37a25.2 25.2 0 0 1-25.2-25.2V109.1a10.08 10.08 0 0 1 6.44-9.4l5.22-2 29.23 15 29.23-15 5.22 2a10.08 10.08 0 0 1 6.43 9.4Z" fill="#a4ecff" class="fill-a4ecff"></path><path d="M174.2 129.16a9.92 9.92 0 0 0 5.82-.52l.7.69a15.07 15.07 0 0 0 21.06 0l.7-.69a10 10 0 0 0 3.75.74 10.13 10.13 0 0 0 2.1-.22 10 10 0 0 0 6.72-5l12.57-23.41a10.07 10.07 0 0 0-1.91-1l-5.22-2-29.23 15L162 97.68l-5.22 2a10.07 10.07 0 0 0-1.91 1l12.57 23.42a10 10 0 0 0 6.76 5.06Z" fill="#6dd0fc" class="fill-6dd0fc"></path><path d="M206.94 175.48h-31.37a27.23 27.23 0 0 1-27.2-27.2V109.1a12.16 12.16 0 0 1 7.71-11.26l5.22-2a2 2 0 0 1 1.64.09l28.31 14.53 28.32-14.56a2 2 0 0 1 1.64-.09l5.22 2a12.16 12.16 0 0 1 7.71 11.26v39.18a27.23 27.23 0 0 1-27.2 27.23Zm-45-75.61-4.39 1.7a8.13 8.13 0 0 0-5.16 7.53v39.18a23.23 23.23 0 0 0 23.2 23.2h31.37a23.23 23.23 0 0 0 23.2-23.2V109.1a8.13 8.13 0 0 0-5.16-7.53l-4.39-1.7-28.43 14.58a2 2 0 0 1-1.83 0Z" fill="#2fb1ea" class="fill-2fb1ea"></path><path d="m200.33 159.91-5 6.9a5 5 0 0 1-8.17 0l-5-6.9a10.08 10.08 0 0 1-1.79-7.44L185 123h12.6l4.56 29.44a10.08 10.08 0 0 1-1.83 7.47Z" fill="#c2505b" class="fill-ff8888"></path><path d="m186.13 123-1.63 10.52a12.29 12.29 0 0 0 13.51 0L196.38 123Z" fill="#f97171" class="fill-f97171"></path><path d="M191.26 170.91a7 7 0 0 1-5.71-2.92l-5-6.9a12 12 0 0 1-2.14-8.92l4.59-29.44a2 2 0 0 1 2-1.69h12.6a2 2 0 0 1 2 1.69l4.56 29.44a12 12 0 0 1-2.14 8.92l-5 6.9a7 7 0 0 1-5.76 2.92ZM186.67 125l-4.29 27.74a8 8 0 0 0 1.43 6l5 6.9a3 3 0 0 0 4.93 0l5-6.9a8 8 0 0 0 1.43-6L195.84 125Z" fill="#2fb1ea" class="fill-2fb1ea"></path><path d="M204.84 117.16 194.79 127a5 5 0 0 1-7.06 0l-10.05-9.86 13.58-5.49Z" fill="#c2505b" class="fill-ff8888"></path><path d="M191.26 130.45a7 7 0 0 1-4.93-2l-10.05-9.86a2 2 0 0 1 .65-3.28l13.58-5.49a2 2 0 0 1 1.5 0l13.58 5.49a2 2 0 0 1 .65 3.28l-10.05 9.86a7 7 0 0 1-4.93 2Zm-10-12.58 7.87 7.72a3.05 3.05 0 0 0 4.26 0l7.87-7.72-10-4Z" fill="#2fb1ea" class="fill-2fb1ea"></path><path d="m172.44 89.08-10.41 8.6 14.25 26.53 14.98-11.54-18.82-23.59z" fill="#ffffff" class="fill-ffffff"></path><path d="M176.27 126.21a2 2 0 0 1-.42 0 2 2 0 0 1-1.34-1l-14.24-26.58a2 2 0 0 1 .49-2.49l10.4-8.6a2 2 0 0 1 2.84.29l18.82 23.6a2 2 0 0 1-.34 2.83l-15 11.54a2 2 0 0 1-1.21.41Zm-11.7-28 12.35 23 11.5-8.86-16.28-20.44Z" fill="#2fb1ea" class="fill-2fb1ea"></path><path d="m210.08 89.08 10.4 8.6-14.24 26.53-14.98-11.54 18.82-23.59z" fill="#ffffff" class="fill-ffffff"></path><path d="M206.24 126.21a2 2 0 0 1-1.22-.42l-15-11.54a2 2 0 0 1-.34-2.83l18.82-23.6a2 2 0 0 1 2.84-.29l10.4 8.6a2 2 0 0 1 .49 2.49L208 125.16a2 2 0 0 1-1.34 1 2 2 0 0 1-.42.05Zm-12.15-13.88 11.5 8.86 12.35-23-7.57-6.26Z" fill="#2fb1ea" class="fill-2fb1ea"></path><rect height="50.4" rx="20.16" ry="20.16" width="40.32" x="171.09" y="44" fill="#c2505b" class="fill-ffc444"></rect><rect height="43.4" rx="20.16" ry="20.16" width="40.32" x="171.09" y="44" fill="#ffe76e" class="fill-ffe76e"></rect><path d="M191.26 96.4a22.19 22.19 0 0 1-22.16-22.16V64.16a22.16 22.16 0 1 1 44.32 0v10.08a22.19 22.19 0 0 1-22.16 22.16Zm0-50.4a18.18 18.18 0 0 0-18.16 18.16v10.08a18.16 18.16 0 1 0 36.32 0V64.16A18.18 18.18 0 0 0 191.26 46Z" fill="#2fb1ea" class="fill-2fb1ea"></path><path d="M89.89 99.94v8.4l-25.15 4.33-25.15-4.33v-8.4l10.18-13.19h29.94l10.18 13.19z" fill="#c2505b" class="fill-ffd659"></path><path d="M64.74 114.67h-.34l-25.15-4.33a2 2 0 0 1-1.66-2v-8.4a2 2 0 0 1 .41-1.22l10.19-13.19a2 2 0 0 1 1.58-.78h29.94a2 2 0 0 1 1.58.78l10.19 13.19a2 2 0 0 1 .42 1.22v8.4a2 2 0 0 1-1.66 2l-25.15 4.33Zm-23.15-8 23.15 4 23.15-4v-6l-9.16-11.92h-28l-9.16 11.87Z" fill="#2fb1ea" class="fill-2fb1ea"></path><path d="M105.63 109.1v39.18a25.2 25.2 0 0 1-25.2 25.2H49.06a25.2 25.2 0 0 1-25.2-25.2V109.1a10.08 10.08 0 0 1 6.44-9.4l5.22-2 29.23 15L94 97.68l5.22 2a10.08 10.08 0 0 1 6.41 9.42Z" fill="#6dd0fc" class="fill-6dd0fc"></path><path d="M105.63 109.1v29.24a25.2 25.2 0 0 1-25.2 25.2H49.06a25.2 25.2 0 0 1-25.2-25.2V109.1a10.08 10.08 0 0 1 6.44-9.4l5.22-2 29.23 15L94 97.68l5.22 2a10.08 10.08 0 0 1 6.41 9.42Z" fill="#a4ecff" class="fill-a4ecff"></path><path d="M47.69 129.16a9.92 9.92 0 0 0 5.82-.52l.7.69a15.07 15.07 0 0 0 21.06 0l.7-.69a10 10 0 0 0 3.75.74 10.13 10.13 0 0 0 2.1-.22 10 10 0 0 0 6.72-5l12.56-23.46a10.07 10.07 0 0 0-1.91-1l-5.22-2-29.23 15-29.23-15-5.22 2a10.07 10.07 0 0 0-1.91 1L41 124.11a10 10 0 0 0 6.69 5.05Z" fill="#6dd0fc" class="fill-6dd0fc"></path><path d="M80.43 175.48H49.06a27.23 27.23 0 0 1-27.2-27.2V109.1a12.16 12.16 0 0 1 7.71-11.26l5.22-2a2 2 0 0 1 1.64.09l28.31 14.53L93.06 95.9a2 2 0 0 1 1.64-.09l5.22 2a12.16 12.16 0 0 1 7.71 11.26v39.18a27.23 27.23 0 0 1-27.2 27.23Zm-45-75.61-4.43 1.7a8.13 8.13 0 0 0-5.16 7.53v39.18a23.23 23.23 0 0 0 23.2 23.2h31.39a23.23 23.23 0 0 0 23.2-23.2V109.1a8.13 8.13 0 0 0-5.16-7.53l-4.39-1.7-28.42 14.58a2 2 0 0 1-1.83 0Z" fill="#2fb1ea" class="fill-2fb1ea"></path><path d="m73.81 159.91-5 6.9a5 5 0 0 1-8.17 0l-5-6.9a10.08 10.08 0 0 1-1.79-7.44L58.44 123H71l4.56 29.44a10.08 10.08 0 0 1-1.75 7.47Z" fill="#c2505b" class="fill-ff8888"></path><path d="M59.62 123 58 133.56a12.29 12.29 0 0 0 13.51 0L69.87 123Z" fill="#f97171" class="fill-f97171"></path><path d="M64.74 170.91A7 7 0 0 1 59 168l-5-6.9a12 12 0 0 1-2.14-8.92l4.56-29.44a2 2 0 0 1 2-1.69H71a2 2 0 0 1 2 1.69l4.56 29.44a12 12 0 0 1-2.14 8.92l-5 6.9a7 7 0 0 1-5.68 2.91ZM60.16 125l-4.29 27.74a8 8 0 0 0 1.43 6l5 6.9a3 3 0 0 0 4.93 0l5-6.9a8 8 0 0 0 1.43-6L69.33 125Z" fill="#2fb1ea" class="fill-2fb1ea"></path><path d="M78.33 117.16 68.27 127a5 5 0 0 1-7.06 0l-10.05-9.86 13.58-5.49Z" fill="#c2505b" class="fill-ff8888"></path><path d="M64.74 130.45a7 7 0 0 1-4.93-2l-10.05-9.86a2 2 0 0 1 .65-3.28L64 109.82a2 2 0 0 1 1.5 0l13.58 5.49a2 2 0 0 1 .65 3.28l-10.05 9.86a7 7 0 0 1-4.94 2Zm-10-12.58 7.87 7.72a3.05 3.05 0 0 0 4.26 0l7.87-7.72-10-4Z" fill="#2fb1ea" class="fill-2fb1ea"></path><path d="m45.92 89.08-10.4 8.6 14.24 26.53 14.98-11.54-18.82-23.59z" fill="#ffffff" class="fill-ffffff"></path><path d="M49.76 126.21a2 2 0 0 1-.42 0 2 2 0 0 1-1.34-1L33.76 98.63a2 2 0 0 1 .49-2.49l10.4-8.6a2 2 0 0 1 2.84.29l18.82 23.6a2 2 0 0 1-.34 2.83L51 125.8a2 2 0 0 1-1.24.41Zm-11.7-28 12.35 23 11.5-8.86-16.28-20.44Z" fill="#2fb1ea" class="fill-2fb1ea"></path><path d="m83.56 89.08 10.41 8.6-14.25 26.53-14.98-11.54 18.82-23.59z" fill="#ffffff" class="fill-ffffff"></path><path d="M79.73 126.21a2 2 0 0 1-1.22-.42l-15-11.54a2 2 0 0 1-.34-2.83L82 87.83a2 2 0 0 1 2.84-.29l10.4 8.6a2 2 0 0 1 .49 2.49l-14.24 26.53a2 2 0 0 1-1.34 1 2 2 0 0 1-.42.05Zm-12.15-13.88 11.5 8.86 12.35-23-7.57-6.26Z" fill="#2fb1ea" class="fill-2fb1ea"></path><rect height="50.4" rx="20.16" ry="20.16" width="40.32" x="44.58" y="44" fill="#c2505b" class="fill-ffc444"></rect><rect height="43.4" rx="20.16" ry="20.16" width="40.32" x="44.58" y="44" fill="#ffe76e" class="fill-ffe76e"></rect><path d="M64.74 96.4a22.19 22.19 0 0 1-22.16-22.16V64.16a22.16 22.16 0 0 1 44.32 0v10.08A22.19 22.19 0 0 1 64.74 96.4Zm0-50.4a18.18 18.18 0 0 0-18.16 18.16v10.08a18.16 18.16 0 1 0 36.32 0V64.16A18.18 18.18 0 0 0 64.74 46Z" fill="#2fb1ea" class="fill-2fb1ea"></path><path d="M153.09 138.46v8.4l-25.15 4.33-25.15-4.33v-8.4l10.18-13.19h29.94l10.18 13.19z" fill="#c2505b" class="fill-ffd659"></path><path d="M127.94 153.19h-.34l-25.15-4.33a2 2 0 0 1-1.66-2v-8.4a2 2 0 0 1 .42-1.22L111.39 124a2 2 0 0 1 1.58-.78h29.94a2 2 0 0 1 1.58.78l10.18 13.19a2 2 0 0 1 .42 1.22v8.4a2 2 0 0 1-1.66 2l-25.15 4.33Zm-23.15-8 23.15 4 23.15-4v-6l-9.16-11.87H114l-9.16 11.87Z" fill="#2fb1ea" class="fill-2fb1ea"></path><path d="M168.82 147.62v39.18a25.2 25.2 0 0 1-25.2 25.2h-31.36a25.2 25.2 0 0 1-25.2-25.2v-39.18a10.08 10.08 0 0 1 6.44-9.4l5.22-2 29.23 15 29.23-15 5.22 2a10.08 10.08 0 0 1 6.42 9.4Z" fill="#6dd0fc" class="fill-6dd0fc"></path><path d="M168.82 147.62v29.24a25.2 25.2 0 0 1-25.2 25.2h-31.36a25.2 25.2 0 0 1-25.2-25.2v-29.24a10.08 10.08 0 0 1 6.44-9.4l5.22-2 29.23 15 29.23-15 5.22 2a10.08 10.08 0 0 1 6.42 9.4Z" fill="#a4ecff" class="fill-a4ecff"></path><path d="M110.88 167.68a9.92 9.92 0 0 0 5.82-.52l.7.69a15.07 15.07 0 0 0 21.06 0l.7-.69a10 10 0 0 0 3.75.74 10.13 10.13 0 0 0 2.1-.22 10 10 0 0 0 6.72-5l12.57-23.41a10.07 10.07 0 0 0-1.91-1l-5.22-2-29.23 15-29.23-15-5.22 2a10.07 10.07 0 0 0-1.91 1l12.57 23.42a10 10 0 0 0 6.73 4.99Z" fill="#6dd0fc" class="fill-6dd0fc"></path><path d="M143.62 214h-31.36a27.23 27.23 0 0 1-27.2-27.2v-39.18a12.16 12.16 0 0 1 7.71-11.26l5.22-2a2 2 0 0 1 1.64.09l28.31 14.53 28.31-14.53a2 2 0 0 1 1.64-.09l5.22 2a12.16 12.16 0 0 1 7.71 11.26v39.18a27.23 27.23 0 0 1-27.2 27.2Zm-45-75.61-4.39 1.7a8.13 8.13 0 0 0-5.16 7.53v39.18a23.23 23.23 0 0 0 23.2 23.2h31.37a23.23 23.23 0 0 0 23.2-23.2v-39.18a8.13 8.13 0 0 0-5.16-7.53l-4.39-1.7L128.85 153a2 2 0 0 1-1.83 0Z" fill="#2fb1ea" class="fill-2fb1ea"></path><path d="m137 198.43-5 6.9a5 5 0 0 1-8.17 0l-5-6.9a10.08 10.08 0 0 1-1.79-7.44l4.56-29.44h12.6l4.6 29.45a10.08 10.08 0 0 1-1.8 7.43Z" fill="#c2505b" class="fill-ff8888"></path><path d="m122.81 161.55-1.63 10.52a12.29 12.29 0 0 0 13.51 0l-1.63-10.52Z" fill="#f97171" class="fill-f97171"></path><path d="M127.94 209.43a7 7 0 0 1-5.71-2.92l-5-6.9a12 12 0 0 1-2.14-8.92l4.56-29.44a2 2 0 0 1 2-1.69h12.6a2 2 0 0 1 2 1.69l4.56 29.44a12 12 0 0 1-2.14 8.92l-5 6.9a7 7 0 0 1-5.73 2.92Zm-4.59-45.87-4.29 27.74a8 8 0 0 0 1.43 6l5 6.9a3 3 0 0 0 4.93 0l5-6.9a8 8 0 0 0 1.43-6l-4.29-27.75Z" fill="#2fb1ea" class="fill-2fb1ea"></path><path d="m141.52 155.68-10.05 9.86a5 5 0 0 1-7.06 0l-10.05-9.86 13.58-5.49Z" fill="#c2505b" class="fill-ff8888"></path><path d="M127.94 169a7 7 0 0 1-4.93-2L113 157.11a2 2 0 0 1 .65-3.28l13.58-5.49a2 2 0 0 1 1.5 0l13.58 5.49a2 2 0 0 1 .65 3.28L132.87 167a7 7 0 0 1-4.93 2Zm-10-12.58 7.87 7.72a3.05 3.05 0 0 0 4.26 0l7.87-7.72-10-4Z" fill="#2fb1ea" class="fill-2fb1ea"></path><path d="m109.12 127.59-10.4 8.61 14.24 26.53 14.98-11.54-18.82-23.6z" fill="#ffffff" class="fill-ffffff"></path><path d="M113 164.73a2 2 0 0 1-.42 0 2 2 0 0 1-1.34-1L97 137.15a2 2 0 0 1 .49-2.49l10.4-8.6a2 2 0 0 1 2.84.29l18.82 23.6a2 2 0 0 1-.34 2.83l-15 11.54a2 2 0 0 1-1.21.41Zm-11.7-28 12.35 23 11.5-8.86-16.28-20.42Z" fill="#2fb1ea" class="fill-2fb1ea"></path><path d="m146.76 127.59 10.4 8.61-14.24 26.53-14.98-11.54 18.82-23.6z" fill="#ffffff" class="fill-ffffff"></path><path d="M142.92 164.73a2 2 0 0 1-1.22-.42l-15-11.54a2 2 0 0 1-.34-2.83l18.82-23.6a2 2 0 0 1 2.84-.29l10.4 8.6a2 2 0 0 1 .49 2.49l-14.24 26.53a2 2 0 0 1-1.34 1 2 2 0 0 1-.41.06Zm-12.15-13.88 11.5 8.86 12.35-23-7.57-6.26Z" fill="#2fb1ea" class="fill-2fb1ea"></path><rect height="50.4" rx="20.16" ry="20.16" width="40.32" x="107.78" y="82.52" fill="#c2505b" class="fill-ffc444"></rect><rect height="43.4" rx="20.16" ry="20.16" width="40.32" x="107.78" y="82.52" fill="#ffe76e" class="fill-ffe76e"></rect><path d="M127.94 134.92a22.19 22.19 0 0 1-22.16-22.16v-10.08a22.16 22.16 0 0 1 44.32 0v10.08a22.19 22.19 0 0 1-22.16 22.16Zm0-50.4a18.18 18.18 0 0 0-18.16 18.16v10.08a18.16 18.16 0 1 0 36.32 0v-10.08a18.18 18.18 0 0 0-18.16-18.16Z" fill="#2fb1ea" class="fill-2fb1ea"></path><circle cx="7" cy="119.5" r="5" fill="#d4ffd4" class="fill-d4ffd4"></circle><circle cx="78" cy="225.5" r="4" fill="#d4ffd4" class="fill-d4ffd4"></circle><circle cx="213" cy="184.5" r="3" fill="#d4ffd4" class="fill-d4ffd4"></circle><circle cx="184" cy="31.5" r="2" fill="#d4ffd4" class="fill-d4ffd4"></circle><circle cx="240" cy="46.5" r="1" fill="#d4ffd4" class="fill-d4ffd4"></circle><circle cx="230" cy="81.5" r="5" fill="#ffbdbd" class="fill-ffbdbd"></circle><circle cx="106" cy="60.5" r="4" fill="#ffbdbd" class="fill-ffbdbd"></circle><circle cx="16" cy="145.5" r="3" fill="#ffbdbd" class="fill-ffbdbd"></circle><circle cx="28" cy="58.5" r="2" fill="#ffbdbd" class="fill-ffbdbd"></circle><circle cx="79" cy="27.5" r="1" fill="#ffbdbd" class="fill-ffbdbd"></circle><circle cx="52" cy="192.5" r="5" fill="#bbf1ff" class="fill-bbf1ff"></circle><circle cx="205" cy="31.5" r="4" fill="#bbf1ff" class="fill-bbf1ff"></circle><circle cx="142" cy="56.5" r="3" fill="#bbf1ff" class="fill-bbf1ff"></circle><circle cx="213" cy="211.5" r="2" fill="#bbf1ff" class="fill-bbf1ff"></circle><circle cx="209" cy="226.5" r="1" fill="#bbf1ff" class="fill-bbf1ff"></circle><circle cx="14" cy="187.5" r="5" fill="#fff4c5" class="fill-fff4c5"></circle><circle cx="250" cy="130.5" r="4" fill="#fff4c5" class="fill-fff4c5"></circle><circle cx="177" cy="205.5" r="3" fill="#fff4c5" class="fill-fff4c5"></circle><circle cx="123" cy="33.5" r="2" fill="#fff4c5" class="fill-fff4c5"></circle><circle cx="157" cy="35.5" r="1" fill="#fff4c5" class="fill-fff4c5"></circle></g></svg>